<?xml version="1.0" encoding="UTF-8" standalone="no"?>
<svg
   xmlns:dc="http://purl.org/dc/elements/1.1/"
   xmlns:cc="http://creativecommons.org/ns#"
   xmlns:rdf="http://www.w3.org/1999/02/22-rdf-syntax-ns#"
   xmlns:svg="http://www.w3.org/2000/svg"
   xmlns="http://www.w3.org/2000/svg"
   xmlns:sodipodi="http://sodipodi.sourceforge.net/DTD/sodipodi-0.dtd"
   xmlns:inkscape="http://www.inkscape.org/namespaces/inkscape"
   width="1500mm"
   height="1000mm"
   viewBox="0 0 1500 1000"
   version="1.1"
   id="svg8"
   inkscape:version="1.0.1 (3bc2e813f5, 2020-09-07)"
   sodipodi:docname="certificate.svg">
  <style
     id="style833"></style>
  <defs
     id="defs2">
    <inkscape:path-effect
       effect="taper_stroke"
       id="path-effect1176"
       is_visible="true"
       lpeversion="1"
       stroke_width="10"
       attach_start="0.2"
       end_offset="0.2"
       smoothing="0.5"
       jointype="extrapolated"
       miter_limit="100" />
    <inkscape:path-effect
       effect="taper_stroke"
       id="path-effect1174"
       is_visible="true"
       lpeversion="1"
       stroke_width="10"
       attach_start="0.2"
       end_offset="0"
       smoothing="0.5"
       jointype="extrapolated"
       miter_limit="100" />
  </defs>
  <sodipodi:namedview
     id="base"
     pagecolor="#ffffff"
     bordercolor="#666666"
     borderopacity="1.0"
     inkscape:pageopacity="0.0"
     inkscape:pageshadow="2"
     inkscape:zoom="0.12374369"
     inkscape:cx="4470.8546"
     inkscape:cy="1679.3392"
     inkscape:document-units="mm"
     inkscape:current-layer="layer1"
     inkscape:document-rotation="0"
     showgrid="false"
     inkscape:window-width="1827"
     inkscape:window-height="1166"
     inkscape:window-x="82"
     inkscape:window-y="-11"
     inkscape:window-maximized="1"
     inkscape:snap-global="false" />
  <metadata
     id="metadata5">
    <rdf:RDF>
      <cc:Work
         rdf:about="">
        <dc:format>image/svg+xml</dc:format>
        <dc:type
           rdf:resource="http://purl.org/dc/dcmitype/StillImage" />
        <dc:title></dc:title>
      </cc:Work>
    </rdf:RDF>
  </metadata>
  <g
     inkscape:label="Layer 1"
     inkscape:groupmode="layer"
     id="layer1">
    <rect
       style="fill:#ffeeaa;fill-rule:evenodd;stroke:#bd9e75;stroke-width:20;stroke-linecap:round;stroke-linejoin:round;stroke-miterlimit:4;stroke-dasharray:none;stroke-opacity:1;paint-order:stroke fill markers"
       id="rect835"
       width="1451.5348"
       height="963.18951"
       x="24.232605"
       y="18.089735" />
    <text
       xml:space="preserve"
       style="font-size:105.833px;line-height:1.5;font-family:'Sunset Boulevard';-inkscape-font-specification:'Sunset Boulevard';text-align:center;text-anchor:middle;fill:#d4aa00;fill-rule:evenodd;stroke:#8a5e25;stroke-width:20;stroke-linecap:round;stroke-linejoin:round;stroke-miterlimit:4;stroke-dasharray:none;stroke-opacity:1;paint-order:stroke fill markers"
       x="751.83661"
       y="263.07141"
       id="text839"><tspan
         sodipodi:role="line"
         x="754.26288"
         y="263.07141"
         style="font-style:normal;font-variant:normal;font-weight:normal;font-stretch:normal;font-size:105.833px;font-family:'Sacred Bridge Demo';-inkscape-font-specification:'Sacred Bridge Demo';letter-spacing:4.85246px;fill:#5f5426;fill-opacity:1;stroke:none;stroke-width:20;stroke-opacity:1"
         id="tspan841"><tspan
   id="tspan1003"
   style="font-style:normal;font-variant:normal;font-weight:normal;font-stretch:normal;font-size:105.833px;font-family:Blacksword;-inkscape-font-specification:Blacksword;letter-spacing:3.77825px;word-spacing:0.195792px;fill:#5f5426;fill-opacity:1;stroke:none;stroke-width:20;stroke-opacity:1"><tspan
   style="font-style:normal;font-variant:normal;font-weight:normal;font-stretch:normal;font-family:'Sacred Bridge Demo';-inkscape-font-specification:'Sacred Bridge Demo';letter-spacing:5.7494px;word-spacing:2.64583px"
   id="tspan843">Certificate</tspan><tspan
   style="font-style:normal;font-variant:normal;font-weight:normal;font-stretch:normal;font-family:'Sacred Bridge Demo';-inkscape-font-specification:'Sacred Bridge Demo'"
   id="tspan1006"> </tspan><tspan
   style="font-size:70.5556px"
   id="tspan1010">of</tspan> </tspan>Recognition</tspan></text>
    <text
       xml:space="preserve"
       style="font-style:normal;font-variant:normal;font-weight:normal;font-stretch:normal;font-size:95.9347px;line-height:1.5;font-family:'Sacred Bridge Demo';-inkscape-font-specification:'Sacred Bridge Demo';text-align:center;text-anchor:middle;fill:#5f5426;fill-opacity:1;fill-rule:evenodd;stroke:none;stroke-width:27.1941;stroke-linecap:round;stroke-linejoin:round;stroke-miterlimit:4;stroke-dasharray:none;stroke-opacity:1;paint-order:stroke fill markers"
       x="-107.84797"
       y="182.11023"
       id="text1016-4"
       transform="scale(-1.0085206,0.99155139)"><tspan
         sodipodi:role="line"
         id="tspan1014-1"
         x="-107.84797"
         y="182.11023"
         style="font-style:normal;font-variant:normal;font-weight:normal;font-stretch:normal;font-size:191.868px;font-family:CornPop;-inkscape-font-specification:CornPop;fill:#5f5426;fill-opacity:1;stroke-width:27.1941">A</tspan></text>
    <text
       xml:space="preserve"
       style="font-style:normal;font-variant:normal;font-weight:normal;font-stretch:normal;font-size:95.9347px;line-height:1.5;font-family:'Sacred Bridge Demo';-inkscape-font-specification:'Sacred Bridge Demo';text-align:center;text-anchor:middle;fill:#5f5426;fill-opacity:1;fill-rule:evenodd;stroke:none;stroke-width:27.1941;stroke-linecap:round;stroke-linejoin:round;stroke-miterlimit:4;stroke-dasharray:none;stroke-opacity:1;paint-order:stroke fill markers"
       x="-108.59753"
       y="-825.92676"
       id="text1016-4-5"
       transform="scale(-1.0085206,-0.99155139)"><tspan
         sodipodi:role="line"
         id="tspan1014-1-3"
         x="-108.59753"
         y="-825.92676"
         style="font-style:normal;font-variant:normal;font-weight:normal;font-stretch:normal;font-size:191.868px;font-family:CornPop;-inkscape-font-specification:CornPop;fill:#5f5426;fill-opacity:1;stroke-width:27.1941">A</tspan></text>
    <text
       xml:space="preserve"
       style="font-style:normal;font-variant:normal;font-weight:normal;font-stretch:normal;font-size:95.9347px;line-height:1.5;font-family:'Sacred Bridge Demo';-inkscape-font-specification:'Sacred Bridge Demo';text-align:center;text-anchor:middle;fill:#5f5426;fill-opacity:1;fill-rule:evenodd;stroke:none;stroke-width:27.1941;stroke-linecap:round;stroke-linejoin:round;stroke-miterlimit:4;stroke-dasharray:none;stroke-opacity:1;paint-order:stroke fill markers"
       x="1380.4896"
       y="182.41495"
       id="text1016-4-2"
       transform="scale(1.0085206,0.99155139)"><tspan
         sodipodi:role="line"
         id="tspan1014-1-8"
         x="1380.4896"
         y="182.41495"
         style="font-style:normal;font-variant:normal;font-weight:normal;font-stretch:normal;font-size:191.868px;font-family:CornPop;-inkscape-font-specification:CornPop;fill:#5f5426;fill-opacity:1;stroke-width:27.1941">A</tspan></text>
    <text
       xml:space="preserve"
       style="font-style:normal;font-variant:normal;font-weight:normal;font-stretch:normal;font-size:95.9347px;line-height:1.5;font-family:'Sacred Bridge Demo';-inkscape-font-specification:'Sacred Bridge Demo';text-align:center;text-anchor:middle;fill:#5f5426;fill-opacity:1;fill-rule:evenodd;stroke:none;stroke-width:27.1941;stroke-linecap:round;stroke-linejoin:round;stroke-miterlimit:4;stroke-dasharray:none;stroke-opacity:1;paint-order:stroke fill markers"
       x="1380.0398"
       y="-825.92676"
       id="text1016-4-2-9"
       transform="scale(1.0085206,-0.99155139)"><tspan
         sodipodi:role="line"
         id="tspan1014-1-8-9"
         x="1380.0398"
         y="-825.92676"
         style="font-style:normal;font-variant:normal;font-weight:normal;font-stretch:normal;font-size:191.868px;font-family:CornPop;-inkscape-font-specification:CornPop;fill:#5f5426;fill-opacity:1;stroke-width:27.1941">A</tspan></text>
    <text
       xml:space="preserve"
       style="font-style:normal;font-variant:normal;font-weight:normal;font-stretch:normal;font-size:141.111px;line-height:1.5;font-family:HELVETICIALIEN;-inkscape-font-specification:HELVETICIALIEN;text-align:center;text-anchor:middle;fill:#4d4d4d;fill-opacity:1;fill-rule:evenodd;stroke:none;stroke-width:20;stroke-linecap:round;stroke-linejoin:round;stroke-miterlimit:4;stroke-dasharray:none;stroke-opacity:1;paint-order:stroke fill markers;"
       x="258.53571"
       y="530.67859"
       id="text1140"><tspan
         sodipodi:role="line"
         id="tspan1138"
         x="258.53571"
         y="530.67859"
         style="font-style:normal;font-variant:normal;font-weight:normal;font-stretch:normal;font-family:HELVETICIALIEN;-inkscape-font-specification:HELVETICIALIEN;fill:#4d4d4d;stroke-width:20;" /></text>
    <text
       xml:space="preserve"
       style="font-style:normal;font-variant:normal;font-weight:normal;font-stretch:normal;font-size:65.7541px;line-height:1.5;font-family:HELVETICIALIEN;-inkscape-font-specification:HELVETICIALIEN;text-align:center;text-anchor:middle;fill:#5f5426;fill-opacity:1;fill-rule:evenodd;stroke:none;stroke-width:12.426;stroke-linecap:round;stroke-linejoin:round;stroke-miterlimit:4;stroke-dasharray:none;stroke-opacity:1;paint-order:stroke fill markers"
       x="779.19672"
       y="609.36279"
       id="text1186"
       transform="scale(0.96294594,1.0384799)"><tspan
         sodipodi:role="line"
         id="tspan1184"
         x="779.19672"
         y="609.36279"
         style="font-style:normal;font-variant:normal;font-weight:normal;font-stretch:normal;font-size:65.7541px;font-family:Marons;-inkscape-font-specification:Marons;stroke-width:12.426">logged onto the 2021 digital advent calendar</tspan><tspan
         sodipodi:role="line"
         x="784.12823"
         y="709.51831"
         style="font-style:normal;font-variant:normal;font-weight:normal;font-stretch:normal;font-size:65.7541px;font-family:Marons;-inkscape-font-specification:Marons;stroke-width:12.426"
         id="tspan1190">and all they got was this lousy certificate </tspan></text>
    <path
       style="fill:none;stroke:#5f5426;stroke-width:5;stroke-linecap:butt;stroke-linejoin:miter;stroke-miterlimit:4;stroke-dasharray:none;stroke-opacity:1"
       d="m 189.08332,535.21429 1133.92858,1.51189"
       id="path1196" />
    <text
       xml:space="preserve"
       style="font-style:normal;font-variant:normal;font-weight:normal;font-stretch:normal;font-size:52.9167px;line-height:1.5;font-family:Marons;-inkscape-font-specification:Marons;text-align:center;text-anchor:middle;fill:#5f5426;fill-opacity:1;fill-rule:evenodd;stroke:#5f5426;stroke-width:5;stroke-linecap:round;stroke-linejoin:round;stroke-miterlimit:4;stroke-dasharray:none;stroke-opacity:1;paint-order:stroke fill markers"
       x="740.83331"
       y="858.7619"
       id="text1200"><tspan
         sodipodi:role="line"
         id="tspan1198"
         x="740.83331"
         y="858.7619"
         style="font-style:normal;font-variant:normal;font-weight:normal;font-stretch:normal;font-family:'Sacred Bridge Demo';-inkscape-font-specification:'Sacred Bridge Demo';stroke:none;stroke-width:5;stroke-miterlimit:4;stroke-dasharray:none">Signed</tspan></text>
    <rect
       style="fill:none;fill-rule:evenodd;stroke:#c0a581;stroke-width:3.57405;stroke-linecap:round;stroke-linejoin:round;stroke-miterlimit:4;stroke-dasharray:none;stroke-opacity:1;paint-order:stroke fill markers"
       id="rect835-1"
       width="1326.9802"
       height="841.15753"
       x="85.74086"
       y="79.105759" />
    <rect
       style="fill:#ffeeaa;fill-rule:evenodd;stroke:none;stroke-width:5.34845;stroke-linecap:round;stroke-linejoin:round;stroke-miterlimit:4;stroke-dasharray:none;stroke-opacity:1;paint-order:stroke fill markers"
       id="rect835-3"
       width="1115.4852"
       height="89.634033"
       x="192.36562"
       y="884.84174" />
    <path
       style="fill:none;stroke:#5f5426;stroke-width:3.07184;stroke-linecap:butt;stroke-linejoin:miter;stroke-miterlimit:4;stroke-dasharray:none;stroke-opacity:1"
       d="m 238.90087,938.12851 423.29352,1.52871"
       id="path1196-7" />
    <path
       style="fill:none;stroke:#5f5426;stroke-width:3.07184;stroke-linecap:butt;stroke-linejoin:miter;stroke-miterlimit:4;stroke-dasharray:none;stroke-opacity:1"
       d="m 836.10324,939.64041 423.29356,1.52871"
       id="path1196-7-1" />
    <text
       xml:space="preserve"
       style="font-style:normal;font-variant:normal;font-weight:normal;font-stretch:normal;font-size:63.9578px;line-height:1.5;font-family:'Sacred Bridge Demo';-inkscape-font-specification:'Sacred Bridge Demo';text-align:center;text-anchor:middle;fill:#5f5426;fill-opacity:1;fill-rule:evenodd;stroke:none;stroke-width:6.04324;stroke-linecap:round;stroke-linejoin:round;stroke-miterlimit:4;stroke-dasharray:none;stroke-opacity:1;paint-order:stroke fill markers"
       x="418.4299"
       y="973.58112"
       id="text1236"
       transform="scale(1.0473624,0.95477937)"><tspan
         sodipodi:role="line"
         id="tspan1234"
         x="418.4299"
         y="973.58112"
         style="font-style:normal;font-variant:normal;font-weight:normal;font-stretch:normal;font-family:Rosther;-inkscape-font-specification:Rosther;stroke-width:6.04325">Zack D</tspan></text>
    <text
       xml:space="preserve"
       style="font-style:normal;font-variant:normal;font-weight:normal;font-stretch:normal;font-size:71.5137px;line-height:1.5;font-family:'Sacred Bridge Demo';-inkscape-font-specification:'Sacred Bridge Demo';text-align:center;text-anchor:middle;fill:#5f5426;fill-opacity:1;fill-rule:evenodd;stroke:none;stroke-width:6.75719;stroke-linecap:round;stroke-linejoin:round;stroke-miterlimit:4;stroke-dasharray:none;stroke-opacity:1;paint-order:stroke fill markers"
       x="1064.3367"
       y="931.13611"
       id="text1236-4"
       transform="scale(0.99238769,1.0076707)"><tspan
         sodipodi:role="line"
         id="tspan1234-6"
         x="1064.3367"
         y="931.13611"
         style="font-style:normal;font-variant:normal;font-weight:normal;font-stretch:normal;font-size:71.5137px;font-family:'Segoe Print';-inkscape-font-specification:'Segoe Print, Normal';font-variant-ligatures:normal;font-variant-caps:normal;font-variant-numeric:normal;font-variant-east-asian:normal;opacity:1;stroke-width:6.75719">Zack P</tspan></text>
    <g
       id="g6727"
       transform="matrix(3.9118904,0,0,3.6593991,-3497.8986,-480.11729)">
      <path
         class="cls-6"
         d="m 1089.22,165.18 a 4.51,4.51 0 1 1 -4.5,-4.5 4.5,4.5 0 0 1 4.5,4.5 z"
         id="path5333"
         style="fill:#977f5f;fill-opacity:1" />
      <g
         id="g6704">
        <path
           class="cls-4"
           d="m 1077.81,148.85 a 0.35,0.35 0 0 1 -0.53,-0.06 5.46,5.46 0 0 0 -1.83,-1.78 l -0.18,0.33 a 0.34,0.34 0 0 1 -0.53,0.07 11,11 0 0 0 -5.32,-2.6 l -0.09,0.59 a 0.35,0.35 0 0 1 -0.41,0.25 c -1.11,-0.3 -2.2,-0.64 -3.32,-0.89 a 34.37,34.37 0 0 1 2.92,4.6 c 1.07,2 2.12,4.36 3.9,5.79 a 20.06,20.06 0 0 0 4.85,2.65 4.61,4.61 0 0 1 1.88,1.08 c 1.19,-1.24 1.28,-4.22 1.06,-5.84 -0.13,-0.88 -0.95,-5.64 -2.4,-4.19 z"
           id="path5323"
           style="fill:#5f5426;fill-opacity:1" />
        <path
           class="cls-4"
           d="m 1085.25,155.17 c 2.28,-0.8 4.64,-1.62 7,-2.28 a 23.6,23.6 0 0 1 6.58,-1 c 2,0 4.13,0.38 6.15,0 a 12.27,12.27 0 0 0 -3.41,-1.47 14.92,14.92 0 0 1 -2.21,-0.45 c -0.51,-0.18 -0.86,-0.59 -1.36,-0.68 a 37.68,37.68 0 0 0 -4.11,-0.44 0.33,0.33 0 0 1 -0.29,-0.38 c 0,-0.26 0.06,-0.52 0.08,-0.77 a 40.26,40.26 0 0 0 -6.22,1.41 0.35,0.35 0 0 1 -0.47,-0.27 c 0,-0.11 0,-0.21 -0.07,-0.32 -4.5,1.3 -7,5.15 -7.16,9.71 1.91,-0.84 3.48,-2.35 5.49,-3.06 z"
           id="path5325"
           style="fill:#5f5426;fill-opacity:1" />
        <path
           class="cls-4"
           d="m 1099.64,152.6 a 21.37,21.37 0 0 0 -7.73,1.09 c -2.27,0.81 -4.69,1.36 -6.92,2.31 -1.69,0.71 -3.07,1.95 -4.72,2.73 l 0.46,0.44 a 0.31,0.31 0 0 1 0.1,0.26 c 0.68,0.42 1.42,1.13 1.94,1.43 a 20.23,20.23 0 0 0 3.93,1.8 c 2.48,0.81 5.52,1.39 7.89,0 l -0.51,-0.49 a 0.34,0.34 0 0 1 0.25,-0.6 7.31,7.31 0 0 0 6.14,-3.42 l -0.36,-0.15 a 0.34,0.34 0 0 1 -0.08,-0.58 c 1.29,-0.8 3.19,-1.77 3.31,-3.47 0,-0.39 0.54,-0.88 1.09,-1.32 a 32,32 0 0 1 -4.79,-0.03 z"
           id="path5327"
           style="fill:#5f5426;fill-opacity:1" />
        <path
           class="cls-4"
           d="m 1071.2477,154.84438 c -2.0042,-2.24568 -3.0345,-5.0948 -4.9404,-7.40915 a 12.712099,11.96927 0 0 0 1.0675,4.01015 0.27582092,0.25970341 0 0 1 -0.1679,0.38138 h -0.1799 c 0.5517,1.68809 1.8495,2.82619 2.9038,4.2545 a 0.28393322,0.2673417 0 0 1 -0.12,0.35919 c -0.2399,0.12995 -0.1679,0.12255 0.2159,0.48914 a 4.6240564,4.3538505 0 0 0 0.9715,0.7638 7.8771205,7.4168225 0 0 0 2.1422,0.87896 c 1.3146,0.31271 3.0262,0.52717 4.1296,-0.35919 -0.2998,-0.58843 -2.0606,-0.93917 -2.6375,-1.18385 a 9.9133277,9.3340444 0 0 1 -3.4316,-2.18461 z"
           id="path5321"
           style="fill:#5f5426;stroke-width:0.787179;fill-opacity:1"
           inkscape:transform-center-x="-36.285714"
           inkscape:transform-center-y="190.5" />
        <path
           class="cls-9"
           d="m 1084.94,159 a 6,6 0 1 1 -6,-6 6,6 0 0 1 6,6 z"
           id="path5329"
           style="fill:#c0a581;fill-opacity:1" />
        <path
           class="cls-6"
           d="m 1079.1,164.23 a 4.51,4.51 0 1 1 -4.5,-4.51 4.49,4.49 0 0 1 4.5,4.51 z"
           id="path5337"
           style="fill:#ab8f69;fill-opacity:1" />
        <ellipse
           style="fill:#f6eabc;fill-opacity:1;fill-rule:evenodd;stroke:none;stroke-width:1.05721;stroke-linecap:round;stroke-linejoin:round;stroke-miterlimit:4;stroke-dasharray:none;stroke-opacity:1;paint-order:stroke fill markers"
           id="path1320-7"
           cx="1076.1815"
           cy="163.62932"
           rx="1.3664469"
           ry="1.460729" />
      </g>
    </g>
  </g>
</svg>
