<?xml version="1.0" encoding="UTF-8" standalone="no"?>
<svg
   xmlns:dc="http://purl.org/dc/elements/1.1/"
   xmlns:cc="http://creativecommons.org/ns#"
   xmlns:rdf="http://www.w3.org/1999/02/22-rdf-syntax-ns#"
   xmlns:svg="http://www.w3.org/2000/svg"
   xmlns="http://www.w3.org/2000/svg"
   xmlns:sodipodi="http://sodipodi.sourceforge.net/DTD/sodipodi-0.dtd"
   xmlns:inkscape="http://www.inkscape.org/namespaces/inkscape"
   width="210mm"
   height="297mm"
   viewBox="0 0 210 297"
   version="1.1"
   id="svg8"
   inkscape:version="1.0.1 (3bc2e813f5, 2020-09-07)"
   sodipodi:docname="frosting.svg"
   inkscape:export-filename="C:\programmingProjects\advent\src\icons\frosting3.png"
   inkscape:export-xdpi="60"
   inkscape:export-ydpi="60">
  <style
     id="style833"></style>
  <defs
     id="defs2" />
  <sodipodi:namedview
     id="base"
     pagecolor="#ffffff"
     bordercolor="#666666"
     borderopacity="1.0"
     inkscape:pageopacity="0.0"
     inkscape:pageshadow="2"
     inkscape:zoom="0.98994949"
     inkscape:cx="400"
     inkscape:cy="509.15566"
     inkscape:document-units="mm"
     inkscape:current-layer="layer1"
     inkscape:document-rotation="0"
     showgrid="false"
     inkscape:window-width="1827"
     inkscape:window-height="1166"
     inkscape:window-x="82"
     inkscape:window-y="-11"
     inkscape:window-maximized="1"
     inkscape:snap-global="false" />
  <metadata
     id="metadata5">
    <rdf:RDF>
      <cc:Work
         rdf:about="">
        <dc:format>image/svg+xml</dc:format>
        <dc:type
           rdf:resource="http://purl.org/dc/dcmitype/StillImage" />
        <dc:title></dc:title>
      </cc:Work>
    </rdf:RDF>
  </metadata>
  <g
     inkscape:label="Layer 1"
     inkscape:groupmode="layer"
     id="layer1">
    <path
       id="rect837-2"
       style="fill:none;fill-rule:evenodd;stroke:#ce9154;stroke-width:19.3037;stroke-linecap:round;stroke-linejoin:round;stroke-miterlimit:4;stroke-dasharray:none;stroke-opacity:1;paint-order:stroke fill markers"
       d="m 35.564692,52.150526 c 11.721802,-7.342636 28.370614,-10.290477 39.783434,-1.5875 14.075416,4.343617 27.625264,3.563744 41.025044,-1.058333 13.39978,-4.622077 32.78962,-4.015637 41.01272,3.245065 0.59247,0.52313 0.8584,1.298982 1.24402,1.936531 5.28986,8.745637 5.18701,16.053404 2.72098,24.400752 -2.64582,8.955863 -2.59717,20.580706 -1.20123,26.028549 1.89886,8.64946 2.72262,17.48542 0,26.9365 -2.24763,21.41678 -1.16131,26.42062 1.20123,40.85876 2.36251,14.43814 1.80766,21.2505 0,27.84449 -6.72104,4.05788 -19.07612,2.27906 -35.40102,0 -16.32491,-2.27907 -23.0214,-5.52159 -40.13242,0 -17.111019,5.52158 -28.520026,-0.83516 -36.642636,0 -8.122609,0.83516 -7.909968,8.48042 -13.610122,0 -5.700155,-8.48043 -0.240916,-21.31661 0,-31.77903 1.807921,-11.05967 0.920155,-15.10568 0,-19.06742 -5.667806,-38.92912 5.468661,-29.456 0,-46.00394 -5.468662,-16.547949 0.667097,-18.30765 0,-28.147142 -0.667098,-9.839491 -4.846556,-20.408486 0,-23.607282 z"
       sodipodi:nodetypes="cczssscczczzzzcczzc"
       inkscape:export-xdpi="40"
       inkscape:export-ydpi="40" />
    <path
       id="rect837"
       style="fill:none;fill-rule:evenodd;stroke:#fffcf2;stroke-width:15.6114;stroke-linecap:round;stroke-linejoin:round;stroke-miterlimit:4;stroke-dasharray:none;stroke-opacity:1;paint-order:stroke fill markers"
       d="m 45.240723,63.216088 c 10.059754,-6.267777 17.313367,-7.247737 34.142493,0 7.587218,2.932716 23.130264,3.116817 36.238964,-3.069073 13.10871,-6.185889 28.55706,-4.633091 34.16656,3.580586 5.60952,8.213676 4.64256,14.837026 2.37189,22.481876 -2.27067,7.644849 -1.19798,17.567973 0,22.218323 1.62962,7.38331 2.33658,14.9258 0,22.99339 -1.92893,18.28166 -2.02753,22.553 0,34.87761 2.02754,12.32459 1.55135,18.13973 0,23.76844 -5.76803,3.46387 -15.34038,1.94544 -29.35056,0 -14.01016,-1.94545 -19.75715,-4.71331 -34.441988,0 -14.684827,4.7133 -24.476138,-0.71291 -31.447034,0 -6.970893,0.7129 -6.788401,7.23901 -11.680325,0 -4.891924,-7.23901 -0.206754,-18.19615 0,-27.12703 1.551574,-9.44069 0.789685,-12.89442 0,-16.27622 -4.864161,-33.23044 4.693253,-25.14405 0,-39.26961 -4.693253,-14.125548 0.572509,-15.627655 0,-24.026783 -0.57251,-8.399128 -4.159356,-17.420971 0,-20.151509 z"
       sodipodi:nodetypes="cczzzcczczzzzcczzc"
       inkscape:export-xdpi="40"
       inkscape:export-ydpi="40" />
    <path
       style="fill:#ce9154;fill-opacity:1;stroke:none;stroke-width:0.281879px;stroke-linecap:butt;stroke-linejoin:miter;stroke-opacity:1"
       d="m 38.255163,44.901281 -14.99944,-9.621703 -1e-6,179.065202 149.934918,-0.26726 -0.53517,-178.797942 -149.322127,0.267269 15.167752,12.294399 24.506331,-6.68711 31.311001,8.825266 44.289833,-6.949009 25.78518,15.234362 -0.30336,41.694047 -1.82013,54.790248 -0.60671,51.04848 -63.704558,-4.54358 -60.367652,5.07812 -7.280521,-35.01231 2.730195,-69.2228 0.303357,-49.177595 z"
       id="path857"
       sodipodi:nodetypes="cccccccccccccccccccc"
       inkscape:export-xdpi="40"
       inkscape:export-ydpi="40" />
    <rect
       style="fill:none;fill-opacity:1;fill-rule:evenodd;stroke:#ce9154;stroke-width:4.57917;stroke-linecap:round;stroke-linejoin:miter;stroke-miterlimit:4;stroke-dasharray:none;stroke-opacity:1;paint-order:stroke fill markers"
       id="rect859"
       width="147.15181"
       height="177.086"
       x="24.378376"
       y="37.741856"
       inkscape:export-xdpi="40"
       inkscape:export-ydpi="40" />
  </g>
</svg>
